HIERARCHY
ROOT Hips
{
	OFFSET 0.000000 0.000000 0.000000
	CHANNELS 6 Xposition Yposition Zposition Zrotation Yrotation Xrotation
	JOINT Spine
	{
		OFFSET 0.000000 -0.000000 1.489414
		CHANNELS 6 Xposition Yposition Zposition Zrotation Yrotation Xrotation
		JOINT Spine1
		{
			OFFSET 0.000000 -0.000001 4.064482
			CHANNELS 6 Xposition Yposition Zposition Zrotation Yrotation Xrotation
			JOINT Neck
			{
				OFFSET 0.000000 -0.000001 4.427754
				CHANNELS 6 Xposition Yposition Zposition Zrotation Yrotation Xrotation
				JOINT Head
				{
					OFFSET 0.000000 -0.363272 2.815356
					CHANNELS 6 Xposition Yposition Zposition Zrotation Yrotation Xrotation
					End Site
					{
						OFFSET 0.000000 -0.000001 3.632717
					}
				}
			}
			JOINT LeftShoulder
			{
				OFFSET 0.731535 0.096024 3.575184
				CHANNELS 6 Xposition Yposition Zposition Zrotation Yrotation Xrotation
				JOINT LeftArm
				{
					OFFSET 2.610319 0.000000 0.000000
					CHANNELS 6 Xposition Yposition Zposition Zrotation Yrotation Xrotation
					JOINT LeftForeArm
					{
						OFFSET 5.118421 0.000000 0.000000
						CHANNELS 6 Xposition Yposition Zposition Zrotation Yrotation Xrotation
						JOINT LeftHand
						{
							OFFSET 4.756909 0.000000 0.000000
							CHANNELS 6 Xposition Yposition Zposition Zrotation Yrotation Xrotation
							End Site
							{
								OFFSET 2.724539 0.000000 0.000000
							}
						}
					}
				}
			}
			JOINT RightShoulder
			{
				OFFSET -0.721442 0.096024 3.575184
				CHANNELS 6 Xposition Yposition Zposition Zrotation Yrotation Xrotation
				JOINT RightArm
				{
					OFFSET -2.610319 0.000000 0.000000
					CHANNELS 6 Xposition Yposition Zposition Zrotation Yrotation Xrotation
					JOINT RightForeArm
					{
						OFFSET -5.118422 0.000000 0.000000
						CHANNELS 6 Xposition Yposition Zposition Zrotation Yrotation Xrotation
						JOINT RightHand
						{
							OFFSET -4.756909 0.000000 0.000000
							CHANNELS 6 Xposition Yposition Zposition Zrotation Yrotation Xrotation
							End Site
							{
								OFFSET -2.724539 0.000000 0.000000
							}
						}
					}
				}
			}
		}
	}
	JOINT LeftUpLeg
	{
		OFFSET 1.816359 0.000000 0.000000
		CHANNELS 6 Xposition Yposition Zposition Zrotation Yrotation Xrotation
		JOINT LeftLeg
		{
			OFFSET 0.000000 0.000001 -7.638974
			CHANNELS 6 Xposition Yposition Zposition Zrotation Yrotation Xrotation
			JOINT LeftFoot
			{
				OFFSET 0.000000 0.000001 -8.008609
				CHANNELS 6 Xposition Yposition Zposition Zrotation Yrotation Xrotation
				JOINT LeftToeBase
				{
					OFFSET 0.000000 -2.724539 -1.180634
					CHANNELS 6 Xposition Yposition Zposition Zrotation Yrotation Xrotation
					End Site
					{
						OFFSET 0.000000 -0.726544 0.000000
					}
				}
			}
		}
	}
	JOINT RightUpLeg
	{
		OFFSET -1.816359 0.000000 0.000000
		CHANNELS 6 Xposition Yposition Zposition Zrotation Yrotation Xrotation
		JOINT RightLeg
		{
			OFFSET 0.000000 0.000001 -7.638974
			CHANNELS 6 Xposition Yposition Zposition Zrotation Yrotation Xrotation
			JOINT RightFoot
			{
				OFFSET 0.000000 0.000001 -8.008609
				CHANNELS 6 Xposition Yposition Zposition Zrotation Yrotation Xrotation
				JOINT RightToeBase
				{
					OFFSET 0.000000 -2.724539 -1.180634
					CHANNELS 6 Xposition Yposition Zposition Zrotation Yrotation Xrotation
					End Site
					{
						OFFSET 0.000000 -0.726544 0.000000
					}
				}
			}
		}
	}
}
MOTION
Frames: 7
Frame Time: 0.041667
22.311125 0.904899 16.088011 206.211635 3.690727 -11.392986 0.000000 -0.000000 1.489413 -1.122376 -5.048570 -12.680527 0.000000 -0.000001 4.064481 -0.746852 -0.950806 19.743796 -0.000001 -0.000001 4.427757 8.940472 -7.448780 11.125780 -0.000000 -0.363271 2.815354 13.011699 11.562350 6.709486 0.731535 0.096025 3.575186 2.308661 -17.044529 -8.742901 2.610318 -0.000000 0.000000 -19.397053 25.295042 -4.354717 5.118420 -0.000001 0.000006 -18.070594 -14.348175 -10.579457 4.756909 0.000001 -0.000002 -2.406702 4.532669 -12.969543 -0.721444 0.096025 3.575187 -7.516385 15.996361 -5.916291 -2.610323 0.000000 0.000001 19.075308 -19.910268 20.622846 -5.118417 -0.000001 0.000003 118.519628 32.352724 55.387373 -4.756908 -0.000003 0.000003 7.593364 26.762592 5.193875 1.816359 -0.000000 0.000001 -14.696933 8.136202 8.234368 -0.000001 0.000001 -7.638977 -8.424786 4.842306 19.513449 -0.000000 0.000001 -8.008608 8.627281 -11.716404 -4.376974 0.000002 -2.724539 -1.180633 0.000000 0.000000 -0.000001 -1.816358 0.000001 0.000001 5.855574 8.751071 -75.637221 -0.000002 -0.000001 -7.638974 -52.578649 -19.306307 77.633330 -0.000001 0.000001 -8.008609 -26.407897 -5.144175 3.075738 0.000000 -2.724540 -1.180635 -0.000000 0.000000 -0.000002 
22.271475 0.924052 16.077518 207.043907 3.433054 -11.136973 0.000004 -0.000001 1.489416 -1.256751 -4.898380 -12.815234 0.000001 -0.000002 4.064480 -0.761484 -0.806630 19.576961 -0.000005 -0.000000 4.427751 8.951070 -7.370835 11.084513 -0.000001 -0.363270 2.815358 12.992269 11.473652 6.757618 0.731531 0.096024 3.575182 2.309119 -17.021330 -8.714095 2.610320 0.000001 -0.000001 -19.491152 25.310045 -4.371993 5.118420 0.000000 -0.000000 -18.064133 -14.386571 -10.653137 4.756908 -0.000000 -0.000000 -2.359608 4.508849 -13.046239 -0.721446 0.096025 3.575181 -7.613760 16.010419 -5.898879 -2.610323 -0.000001 0.000003 19.033063 -19.862110 20.367943 -5.118420 -0.000002 0.000000 118.534299 32.110611 55.141391 -4.756909 -0.000000 -0.000000 7.602129 26.725823 5.291091 1.816363 -0.000001 0.000002 -14.843937 8.358789 7.989424 0.000002 0.000001 -7.638973 -8.481595 4.928354 19.560545 0.000002 0.000001 -8.008608 8.126014 -11.732013 -4.343918 0.000000 -2.724539 -1.180633 0.000000 -0.000000 -0.000002 -1.816358 0.000000 0.000001 6.028404 8.392396 -74.937680 -0.000001 0.000000 -7.638973 -51.960893 -19.621914 76.461857 0.000003 0.000001 -8.008609 -26.078301 -5.616856 3.399562 0.000000 -2.724537 -1.180633 -0.000001 0.000003 0.000001 
22.230707 0.945750 16.066723 207.895727 3.195088 -10.930386 0.000000 0.000000 1.489413 -1.393457 -4.756347 -12.929825 -0.000001 -0.000000 4.064482 -0.776330 -0.656858 19.439094 -0.000005 -0.000000 4.427757 8.892058 -7.345849 11.121699 0.000003 -0.363277 2.815358 12.925502 11.503627 6.689633 0.731534 0.096024 3.575184 2.272807 -17.044448 -8.660787 2.610322 -0.000001 0.000002 -19.611987 25.344701 -4.574791 5.118422 0.000000 -0.000002 -18.039136 -14.371184 -10.629058 4.756908 0.000001 0.000001 -2.378315 4.496945 -13.016904 -0.721443 0.096023 3.575186 -7.677569 15.989345 -5.876869 -2.610318 -0.000000 -0.000001 18.929342 -19.796330 20.143246 -5.118420 -0.000000 0.000002 118.560281 31.907861 54.928333 -4.756908 -0.000005 0.000002 7.675471 26.721136 5.371453 1.816359 0.000001 -0.000002 -14.813406 8.588642 7.820868 0.000001 0.000001 -7.638975 -8.629706 4.917876 19.650410 0.000000 0.000001 -8.008608 7.543684 -11.778228 -4.310962 0.000000 -2.724539 -1.180633 0.000000 -0.000000 -0.000001 -1.816358 0.000000 -0.000002 6.216341 8.038502 -74.213448 0.000002 0.000002 -7.638975 -51.312319 -19.690329 75.268138 0.000000 0.000001 -8.008611 -25.637552 -6.077107 3.777624 -0.000000 -2.724537 -1.180633 -0.000001 0.000000 -0.000001 
22.190073 0.965605 16.053375 208.732575 2.907779 -10.707842 0.000001 0.000000 1.489413 -1.500792 -4.557367 -13.030928 0.000002 -0.000000 4.064482 -0.782379 -0.525990 19.277389 -0.000002 -0.000001 4.427752 8.848827 -7.320884 11.117570 0.000000 -0.363273 2.815355 12.875265 11.530707 6.644875 0.731534 0.096024 3.575183 2.198490 -17.033238 -8.649070 2.610320 0.000001 -0.000002 -19.663415 25.322957 -4.718252 5.118422 0.000000 0.000001 -18.026802 -14.313336 -10.587362 4.756910 -0.000001 0.000001 -2.375060 4.500977 -12.964234 -0.721442 0.096024 3.575182 -7.777578 15.994867 -5.902548 -2.610319 -0.000001 -0.000002 18.824094 -19.789614 19.984246 -5.118416 -0.000003 -0.000001 118.615920 31.726949 54.777841 -4.756907 0.000000 0.000001 7.649758 26.709299 5.432065 1.816360 0.000000 -0.000001 -14.882393 8.826796 7.616936 -0.000002 0.000001 -7.638975 -8.439194 4.903736 19.713833 0.000001 0.000001 -8.008608 6.713574 -11.874918 -4.272350 0.000002 -2.724539 -1.180634 0.000000 -0.000001 -0.000000 -1.816360 0.000001 -0.000001 6.419193 7.715096 -73.524446 0.000000 -0.000000 -7.638973 -50.526837 -19.829246 74.085238 -0.000001 0.000002 -8.008606 -25.229920 -6.273392 4.067528 0.000001 -2.724538 -1.180635 -0.000001 -0.000003 0.000003 
22.148018 0.986391 16.041521 209.604012 2.686354 -10.506493 0.000001 -0.000000 1.489418 -1.652542 -4.458730 -13.147581 0.000000 0.000000 4.064482 -0.798239 -0.337942 19.181844 -0.000001 -0.000002 4.427753 8.847561 -7.266447 11.053280 0.000000 -0.363272 2.815356 12.845861 11.474655 6.625891 0.731534 0.096023 3.575182 2.204307 -17.050531 -8.605250 2.610323 0.000002 0.000001 -19.797769 25.353853 -4.688222 5.118422 0.000000 0.000002 -17.999259 -14.409303 -10.664919 4.756910 -0.000001 -0.000001 -2.329816 4.483778 -13.051583 -0.721443 0.096023 3.575184 -7.838104 16.002227 -5.913098 -2.610320 -0.000001 -0.000002 18.696796 -19.791516 19.709612 -5.118422 -0.000002 -0.000001 118.654319 31.474990 54.546659 -4.756906 -0.000001 0.000004 7.647547 26.777956 5.544796 1.816361 -0.000000 0.000001 -14.964376 8.992469 7.532053 -0.000001 0.000001 -7.638975 -8.585065 5.002558 19.705004 0.000001 0.000001 -8.008607 6.208067 -12.026780 -4.345282 0.000002 -2.724538 -1.180634 -0.000001 -0.000000 0.000001 -1.816357 0.000000 0.000003 6.587248 7.395798 -72.752224 0.000004 -0.000001 -7.638977 -49.813055 -19.843332 72.859827 -0.000000 0.000002 -8.008608 -24.758399 -6.488593 4.348752 0.000000 -2.724539 -1.180632 -0.000002 -0.000004 0.000002 
22.105839 1.011554 16.029015 210.515883 2.486746 -10.327450 0.000001 0.000001 1.489416 -1.828169 -4.272641 -13.265219 -0.000001 -0.000001 4.064483 -0.841993 -0.287304 19.102921 -0.000003 0.000001 4.427755 8.814589 -7.204727 11.011535 0.000002 -0.363274 2.815358 12.787222 11.453642 6.582511 0.731534 0.096025 3.575187 2.158191 -17.028281 -8.595872 2.610319 0.000001 -0.000003 -19.894504 25.369706 -4.780692 5.118422 -0.000002 0.000002 -17.997917 -14.414535 -10.660565 4.756909 0.000000 0.000001 -2.335486 4.438338 -13.047219 -0.721442 0.096025 3.575183 -7.976624 15.994816 -5.870599 -2.610318 0.000000 0.000001 18.712413 -19.753337 19.551077 -5.118422 0.000000 0.000001 118.818517 31.481121 54.256373 -4.756908 -0.000001 0.000002 8.076590 26.267431 5.164657 1.816359 0.000001 0.000001 -15.102499 9.174687 7.447729 -0.000001 0.000002 -7.638975 -8.624123 5.019568 19.696293 -0.000000 0.000001 -8.008609 5.568396 -12.107665 -4.354166 0.000001 -2.724539 -1.180633 -0.000000 0.000000 -0.000002 -1.816358 -0.000000 0.000000 6.762694 7.041483 -71.953980 -0.000001 0.000002 -7.638975 -48.854000 -19.893546 71.644675 0.000001 0.000000 -8.008610 -24.143018 -6.921298 4.531334 -0.000000 -2.724537 -1.180635 -0.000006 0.000001 0.000005 
22.062969 1.031385 16.014555 211.367075 2.254366 -10.112052 0.000001 -0.000000 1.489412 -1.945301 -4.159167 -13.394424 0.000000 -0.000001 4.064482 -0.847607 -0.107743 19.019767 0.000001 -0.000001 4.427753 8.778503 -7.202139 10.954360 0.000003 -0.363274 2.815352 12.750135 11.505857 6.525541 0.731534 0.096024 3.575186 2.111767 -17.048463 -8.554575 2.610318 -0.000000 -0.000002 -19.992233 25.361454 -4.954993 5.118422 0.000000 0.000006 -18.002642 -14.409093 -10.620709 4.756908 0.000000 0.000000 -2.364686 4.455028 -13.008553 -0.721443 0.096024 3.575181 -8.064013 15.983792 -5.857449 -2.610317 -0.000001 -0.000001 18.626151 -19.748577 19.192342 -5.118421 0.000001 0.000004 118.801715 31.209446 54.046358 -4.756908 -0.000001 0.000002 8.006166 26.374600 5.365533 1.816357 0.000001 -0.000001 -15.120464 9.358837 7.301427 0.000002 0.000002 -7.638975 -8.941118 5.145905 19.717402 0.000002 0.000001 -8.008610 5.205022 -12.227213 -4.389780 0.000002 -2.724538 -1.180634 0.000000 -0.000001 0.000002 -1.816359 0.000000 -0.000003 6.972986 6.672024 -71.222405 0.000000 0.000001 -7.638976 -47.844314 -19.840282 70.349002 0.000002 0.000002 -8.008607 -23.777261 -7.177709 4.824275 -0.000001 -2.724538 -1.180631 -0.000002 0.000001 0.000002 
